<svg xmlns="http://www.w3.org/2000/svg" xmlns:xlink="http://www.w3.org/1999/xlink" width="1920" zoomAndPan="magnify" viewBox="0 0 1440 809.999993" height="1080" preserveAspectRatio="xMidYMid meet" version="1.0"><defs><g/><clipPath id="3ff9913acb"><path d="M 0 0.0390625 L 1031.519531 0.0390625 L 1031.519531 240.761719 L 0 240.761719 Z M 0 0.0390625 " clip-rule="nonzero"/></clipPath><clipPath id="fa470a53f0"><path d="M 828 0.0390625 L 867 0.0390625 L 867 196 L 828 196 Z M 828 0.0390625 " clip-rule="nonzero"/></clipPath><clipPath id="7ceb65e2ef"><rect x="0" width="1032" y="0" height="241"/></clipPath><clipPath id="5a23b514a8"><rect x="0" width="1032" y="0" height="241"/></clipPath></defs><g transform="matrix(1, 0, 0, 1, 204, 281)"><g clip-path="url(#5a23b514a8)"><g clip-path="url(#3ff9913acb)"><g transform="matrix(1, 0, 0, 1, 0.000000000000028422, 0.000000000000056843)"><g clip-path="url(#7ceb65e2ef)"><g fill="#190402" fill-opacity="1"><g transform="translate(1.939809, 195.170396)"><g><path d="M 82.40625 3.90625 C 69.238281 3.90625 57.671875 1.265625 47.703125 -4.015625 C 37.734375 -9.304688 30.019531 -16.675781 24.5625 -26.125 C 19.101562 -35.570312 16.375 -46.617188 16.375 -59.265625 L 16.375 -140.375 L 54.328125 -140.375 L 54.328125 -63.6875 C 54.328125 -53.632812 56.796875 -45.789062 61.734375 -40.15625 C 66.671875 -34.53125 73.5625 -31.71875 82.40625 -31.71875 C 91.238281 -31.71875 98.082031 -34.578125 102.9375 -40.296875 C 107.789062 -46.015625 110.21875 -53.8125 110.21875 -63.6875 L 110.21875 -140.375 L 148.171875 -140.375 L 148.171875 -59.265625 C 148.171875 -46.617188 145.441406 -35.570312 139.984375 -26.125 C 134.523438 -16.675781 126.851562 -9.304688 116.96875 -4.015625 C 107.09375 1.265625 95.570312 3.90625 82.40625 3.90625 Z M 82.40625 3.90625 "/></g></g></g><g fill="#190402" fill-opacity="1"><g transform="translate(156.095961, 195.170396)"><g><path d="M 98.265625 -143.75 C 114.203125 -143.75 126.804688 -138.421875 136.078125 -127.765625 C 145.359375 -117.109375 150 -102.851562 150 -85 L 150 0 L 112.046875 0 L 112.046875 -79.03125 C 112.046875 -100 103.898438 -110.484375 87.609375 -110.484375 C 77.898438 -110.484375 70.226562 -107.1875 64.59375 -100.59375 C 58.96875 -94.007812 56.15625 -85.085938 56.15625 -73.828125 L 56.15625 0 L 18.203125 0 L 18.203125 -140.375 L 44.1875 -140.375 L 51.734375 -122.953125 C 56.929688 -129.367188 63.601562 -134.4375 71.75 -138.15625 C 79.894531 -141.882812 88.734375 -143.75 98.265625 -143.75 Z M 98.265625 -143.75 "/></g></g></g><g fill="#190402" fill-opacity="1"><g transform="translate(312.331774, 195.170396)"><g><path d="M 68.109375 3.90625 C 56.328125 3.90625 46.015625 1.828125 37.171875 -2.328125 C 28.335938 -6.492188 21.445312 -12.34375 16.5 -19.875 C 11.5625 -27.414062 9.09375 -36.210938 9.09375 -46.265625 L 46.015625 -46.265625 C 46.179688 -40.023438 48.429688 -35.347656 52.765625 -32.234375 C 57.097656 -29.117188 62.644531 -27.5625 69.40625 -27.5625 C 74.78125 -27.5625 79.457031 -28.726562 83.4375 -31.0625 C 87.425781 -33.40625 89.421875 -36.914062 89.421875 -41.59375 C 89.421875 -46.445312 86.773438 -49.867188 81.484375 -51.859375 C 76.203125 -53.847656 69.835938 -55.453125 62.390625 -56.671875 C 56.835938 -57.535156 51.070312 -58.75 45.09375 -60.3125 C 39.125 -61.875 33.625 -64.125 28.59375 -67.0625 C 23.570312 -70.007812 19.457031 -74.082031 16.25 -79.28125 C 13.039062 -84.476562 11.4375 -91.238281 11.4375 -99.5625 C 11.4375 -108.394531 13.816406 -116.191406 18.578125 -122.953125 C 23.347656 -129.710938 29.9375 -134.957031 38.34375 -138.6875 C 46.75 -142.414062 56.671875 -144.28125 68.109375 -144.28125 C 79.367188 -144.28125 89.203125 -142.328125 97.609375 -138.421875 C 106.015625 -134.523438 112.554688 -129.066406 117.234375 -122.046875 C 121.910156 -115.023438 124.25 -106.835938 124.25 -97.484375 L 88.125 -97.484375 C 88.125 -103.023438 86.257812 -107.179688 82.53125 -109.953125 C 78.8125 -112.734375 73.65625 -114.125 67.0625 -114.125 C 61.175781 -114.125 56.582031 -112.863281 53.28125 -110.34375 C 49.988281 -107.832031 48.34375 -104.585938 48.34375 -100.609375 C 48.34375 -95.921875 50.941406 -92.710938 56.140625 -90.984375 C 61.347656 -89.253906 67.585938 -87.78125 74.859375 -86.5625 C 80.578125 -85.519531 86.46875 -84.257812 92.53125 -82.78125 C 98.601562 -81.3125 104.238281 -79.101562 109.4375 -76.15625 C 114.632812 -73.21875 118.835938 -69.148438 122.046875 -63.953125 C 125.253906 -58.753906 126.859375 -51.90625 126.859375 -43.40625 C 126.859375 -33.875 124.429688 -25.554688 119.578125 -18.453125 C 114.722656 -11.347656 107.875 -5.84375 99.03125 -1.9375 C 90.195312 1.957031 79.890625 3.90625 68.109375 3.90625 Z M 68.109375 3.90625 "/></g></g></g><g fill="#190402" fill-opacity="1"><g transform="translate(438.412265, 195.170396)"><g><path d="M 86.828125 -33.796875 L 103.984375 -33.796875 L 103.984375 0 L 77.203125 0 C 61.773438 0 49.597656 -4.460938 40.671875 -13.390625 C 31.753906 -22.316406 27.296875 -34.578125 27.296875 -50.171875 L 27.296875 -109.953125 L 1.8125 -109.953125 L 1.8125 -118.015625 L 57.453125 -177.03125 L 64.46875 -177.03125 L 64.46875 -140.375 L 103.203125 -140.375 L 103.203125 -109.953125 L 65.25 -109.953125 L 65.25 -55.109375 C 65.25 -48.347656 67.109375 -43.101562 70.828125 -39.375 C 74.554688 -35.65625 79.890625 -33.796875 86.828125 -33.796875 Z M 86.828125 -33.796875 "/></g></g></g><g fill="#190402" fill-opacity="1"><g transform="translate(539.796569, 195.170396)"><g><path d="M 132.84375 -140.640625 L 161.171875 -140.640625 L 161.171875 -0.265625 L 131.28125 -0.265625 L 128.15625 -12.734375 C 122.09375 -7.535156 115.203125 -3.460938 107.484375 -0.515625 C 99.773438 2.429688 91.503906 3.90625 82.671875 3.90625 C 68.628906 3.90625 56.0625 0.65625 44.96875 -5.84375 C 33.875 -12.34375 25.117188 -21.179688 18.703125 -32.359375 C 12.296875 -43.535156 9.09375 -56.234375 9.09375 -70.453125 C 9.09375 -84.484375 12.296875 -97.085938 18.703125 -108.265625 C 25.117188 -119.441406 33.875 -128.238281 44.96875 -134.65625 C 56.0625 -141.070312 68.628906 -144.28125 82.671875 -144.28125 C 91.679688 -144.28125 100.082031 -142.757812 107.875 -139.71875 C 115.675781 -136.6875 122.609375 -132.484375 128.671875 -127.109375 Z M 85.78125 -31.96875 C 93.0625 -31.96875 99.601562 -33.613281 105.40625 -36.90625 C 111.21875 -40.207031 115.769531 -44.757812 119.0625 -50.5625 C 122.351562 -56.363281 124 -62.992188 124 -70.453125 C 124 -77.722656 122.351562 -84.257812 119.0625 -90.0625 C 115.769531 -95.875 111.21875 -100.46875 105.40625 -103.84375 C 99.601562 -107.226562 93.0625 -108.921875 85.78125 -108.921875 C 78.332031 -108.921875 71.75 -107.226562 66.03125 -103.84375 C 60.3125 -100.46875 55.804688 -95.875 52.515625 -90.0625 C 49.222656 -84.257812 47.578125 -77.722656 47.578125 -70.453125 C 47.578125 -62.992188 49.222656 -56.40625 52.515625 -50.6875 C 55.804688 -44.96875 60.3125 -40.414062 66.03125 -37.03125 C 71.75 -33.65625 78.332031 -31.96875 85.78125 -31.96875 Z M 85.78125 -31.96875 "/></g></g></g><g fill="#190402" fill-opacity="1"><g transform="translate(708.770432, 195.170396)"><g><path d="M 86.828125 -33.796875 L 103.984375 -33.796875 L 103.984375 0 L 77.203125 0 C 61.773438 0 49.597656 -4.460938 40.671875 -13.390625 C 31.753906 -22.316406 27.296875 -34.578125 27.296875 -50.171875 L 27.296875 -109.953125 L 1.8125 -109.953125 L 1.8125 -118.015625 L 57.453125 -177.03125 L 64.46875 -177.03125 L 64.46875 -140.375 L 103.203125 -140.375 L 103.203125 -109.953125 L 65.25 -109.953125 L 65.25 -55.109375 C 65.25 -48.347656 67.109375 -43.101562 70.828125 -39.375 C 74.554688 -35.65625 79.890625 -33.796875 86.828125 -33.796875 Z M 86.828125 -33.796875 "/></g></g></g><g clip-path="url(#fa470a53f0)"><g fill="#190402" fill-opacity="1"><g transform="translate(810.154736, 195.170396)"><g><path d="M 18.203125 -159.09375 L 18.203125 -194.4375 L 56.15625 -194.4375 L 56.15625 -159.09375 Z M 18.203125 0 L 18.203125 -140.375 L 56.15625 -140.375 L 56.15625 0 Z M 18.203125 0 "/></g></g></g></g><g fill="#190402" fill-opacity="1"><g transform="translate(874.10487, 195.170396)"><g><path d="M 83.4375 3.90625 C 69.40625 3.90625 56.753906 0.613281 45.484375 -5.96875 C 34.222656 -12.5625 25.34375 -21.488281 18.84375 -32.75 C 12.34375 -44.019531 9.09375 -56.671875 9.09375 -70.703125 C 9.09375 -84.742188 12.34375 -97.304688 18.84375 -108.390625 C 25.34375 -119.484375 34.222656 -128.238281 45.484375 -134.65625 C 56.753906 -141.070312 69.492188 -144.28125 83.703125 -144.28125 C 95.835938 -144.28125 106.882812 -141.894531 116.84375 -137.125 C 126.8125 -132.351562 135.128906 -125.632812 141.796875 -116.96875 C 148.472656 -108.3125 152.9375 -98.265625 155.1875 -86.828125 L 117.5 -86.828125 C 114.375 -93.753906 109.820312 -99.125 103.84375 -102.9375 C 97.875 -106.75 91.070312 -108.65625 83.4375 -108.65625 C 76.6875 -108.65625 70.582031 -106.960938 65.125 -103.578125 C 59.664062 -100.203125 55.375 -95.65625 52.25 -89.9375 C 49.132812 -84.21875 47.578125 -77.722656 47.578125 -70.453125 C 47.578125 -63.171875 49.132812 -56.625 52.25 -50.8125 C 55.375 -45.007812 59.664062 -40.375 65.125 -36.90625 C 70.582031 -33.445312 76.6875 -31.71875 83.4375 -31.71875 C 91.238281 -31.71875 98.039062 -33.753906 103.84375 -37.828125 C 109.65625 -41.898438 114.207031 -47.75 117.5 -55.375 L 155.71875 -55.375 C 153.457031 -43.582031 148.945312 -33.222656 142.1875 -24.296875 C 135.4375 -15.378906 127.035156 -8.445312 116.984375 -3.5 C 106.929688 1.4375 95.75 3.90625 83.4375 3.90625 Z M 83.4375 3.90625 "/></g></g></g></g></g></g></g></g></svg>