<svg xmlns="http://www.w3.org/2000/svg" xmlns:xlink="http://www.w3.org/1999/xlink" width="250" zoomAndPan="magnify" viewBox="0 0 187.5 187.499992" height="250" preserveAspectRatio="xMidYMid meet" version="1.0"><defs><g/><clipPath id="9457cef1ff"><rect x="0" width="160" y="0" height="182"/></clipPath></defs><g transform="matrix(1, 0, 0, 1, 9, 5)"><g clip-path="url(#9457cef1ff)"><g fill="#190402" fill-opacity="1"><g transform="translate(1.355808, 166.563702)"><g><path d="M 83.125 3.4375 C 70.414062 3.4375 59.085938 0.722656 49.140625 -4.703125 C 39.191406 -10.140625 31.304688 -17.640625 25.484375 -27.203125 C 19.671875 -36.773438 16.765625 -47.835938 16.765625 -60.390625 L 16.765625 -160.75 L 51.671875 -160.75 L 51.671875 -62 C 51.671875 -52.050781 54.613281 -44.128906 60.5 -38.234375 C 66.394531 -32.335938 73.9375 -29.390625 83.125 -29.390625 C 92.46875 -29.390625 100.085938 -32.335938 105.984375 -38.234375 C 111.878906 -44.128906 114.828125 -52.050781 114.828125 -62 L 114.828125 -160.75 L 149.5 -160.75 L 149.5 -60.390625 C 149.5 -47.835938 146.625 -36.773438 140.875 -27.203125 C 135.132812 -17.640625 127.25 -10.140625 117.21875 -4.703125 C 107.195312 0.722656 95.832031 3.4375 83.125 3.4375 Z M 83.125 3.4375 "/></g></g></g></g></g></svg>