<svg xmlns="http://www.w3.org/2000/svg" xmlns:xlink="http://www.w3.org/1999/xlink" width="750" zoomAndPan="magnify" viewBox="0 0 562.5 187.499995" height="250" preserveAspectRatio="xMidYMid meet" version="1.0"><defs><g/><clipPath id="7100de40e6"><path d="M 0.5 26 L 559 26 L 559 158 L 0.5 158 Z M 0.5 26 " clip-rule="nonzero"/></clipPath><clipPath id="96d8996931"><path d="M 448 0.0898438 L 469 0.0898438 L 469 107 L 448 107 Z M 448 0.0898438 " clip-rule="nonzero"/></clipPath><clipPath id="0e2edc02c2"><rect x="0" width="559" y="0" height="132"/></clipPath></defs><g clip-path="url(#7100de40e6)"><g transform="matrix(1, 0, 0, 1, 0.000000000000000111, 26)"><g clip-path="url(#0e2edc02c2)"><g fill="#190402" fill-opacity="1"><g transform="translate(-2.01964, 106.43622)"><g><path d="M 44.875 2.125 C 37.707031 2.125 31.410156 0.6875 25.984375 -2.1875 C 20.554688 -5.070312 16.351562 -9.082031 13.375 -14.21875 C 10.40625 -19.363281 8.921875 -25.382812 8.921875 -32.28125 L 8.921875 -76.453125 L 29.59375 -76.453125 L 29.59375 -34.6875 C 29.59375 -29.207031 30.9375 -24.929688 33.625 -21.859375 C 36.3125 -18.796875 40.0625 -17.265625 44.875 -17.265625 C 49.6875 -17.265625 53.414062 -18.820312 56.0625 -21.9375 C 58.707031 -25.050781 60.03125 -29.300781 60.03125 -34.6875 L 60.03125 -76.453125 L 80.703125 -76.453125 L 80.703125 -32.28125 C 80.703125 -25.382812 79.210938 -19.363281 76.234375 -14.21875 C 73.265625 -9.082031 69.085938 -5.070312 63.703125 -2.1875 C 58.328125 0.6875 52.050781 2.125 44.875 2.125 Z M 44.875 2.125 "/></g></g></g><g fill="#190402" fill-opacity="1"><g transform="translate(81.939516, 106.43622)"><g><path d="M 53.515625 -78.296875 C 62.203125 -78.296875 69.066406 -75.390625 74.109375 -69.578125 C 79.160156 -63.773438 81.6875 -56.015625 81.6875 -46.296875 L 81.6875 0 L 61.015625 0 L 61.015625 -43.046875 C 61.015625 -54.460938 56.582031 -60.171875 47.71875 -60.171875 C 42.425781 -60.171875 38.242188 -58.375 35.171875 -54.78125 C 32.109375 -51.195312 30.578125 -46.335938 30.578125 -40.203125 L 30.578125 0 L 9.90625 0 L 9.90625 -76.453125 L 24.0625 -76.453125 L 28.171875 -66.96875 C 31.003906 -70.457031 34.640625 -73.21875 39.078125 -75.25 C 43.515625 -77.28125 48.328125 -78.296875 53.515625 -78.296875 Z M 53.515625 -78.296875 "/></g></g></g><g fill="#190402" fill-opacity="1"><g transform="translate(167.031333, 106.43622)"><g><path d="M 37.09375 2.125 C 30.675781 2.125 25.0625 0.992188 20.25 -1.265625 C 15.4375 -3.535156 11.679688 -6.722656 8.984375 -10.828125 C 6.296875 -14.929688 4.953125 -19.722656 4.953125 -25.203125 L 25.0625 -25.203125 C 25.15625 -21.804688 26.378906 -19.253906 28.734375 -17.546875 C 31.097656 -15.847656 34.117188 -15 37.796875 -15 C 40.722656 -15 43.269531 -15.632812 45.4375 -16.90625 C 47.613281 -18.1875 48.703125 -20.101562 48.703125 -22.65625 C 48.703125 -25.289062 47.257812 -27.148438 44.375 -28.234375 C 41.5 -29.328125 38.035156 -30.203125 33.984375 -30.859375 C 30.960938 -31.335938 27.820312 -32 24.5625 -32.84375 C 21.300781 -33.695312 18.300781 -34.925781 15.5625 -36.53125 C 12.832031 -38.132812 10.59375 -40.347656 8.84375 -43.171875 C 7.101562 -46.003906 6.234375 -49.6875 6.234375 -54.21875 C 6.234375 -59.03125 7.53125 -63.273438 10.125 -66.953125 C 12.71875 -70.640625 16.300781 -73.5 20.875 -75.53125 C 25.457031 -77.5625 30.863281 -78.578125 37.09375 -78.578125 C 43.226562 -78.578125 48.582031 -77.515625 53.15625 -75.390625 C 57.738281 -73.265625 61.300781 -70.289062 63.84375 -66.46875 C 66.394531 -62.644531 67.671875 -58.1875 67.671875 -53.09375 L 48 -53.09375 C 48 -56.113281 46.984375 -58.378906 44.953125 -59.890625 C 42.921875 -61.398438 40.113281 -62.15625 36.53125 -62.15625 C 33.320312 -62.15625 30.816406 -61.46875 29.015625 -60.09375 C 27.222656 -58.726562 26.328125 -56.960938 26.328125 -54.796875 C 26.328125 -52.242188 27.742188 -50.492188 30.578125 -49.546875 C 33.410156 -48.609375 36.8125 -47.804688 40.78125 -47.140625 C 43.894531 -46.578125 47.101562 -45.894531 50.40625 -45.09375 C 53.707031 -44.289062 56.773438 -43.085938 59.609375 -41.484375 C 62.441406 -39.878906 64.726562 -37.660156 66.46875 -34.828125 C 68.21875 -31.992188 69.09375 -28.265625 69.09375 -23.640625 C 69.09375 -18.453125 67.769531 -13.921875 65.125 -10.046875 C 62.476562 -6.179688 58.75 -3.1875 53.9375 -1.0625 C 49.125 1.0625 43.507812 2.125 37.09375 2.125 Z M 37.09375 2.125 "/></g></g></g><g fill="#190402" fill-opacity="1"><g transform="translate(235.699443, 106.43622)"><g><path d="M 47.28125 -18.40625 L 56.625 -18.40625 L 56.625 0 L 42.046875 0 C 33.648438 0 27.019531 -2.425781 22.15625 -7.28125 C 17.289062 -12.144531 14.859375 -18.828125 14.859375 -27.328125 L 14.859375 -59.890625 L 0.984375 -59.890625 L 0.984375 -64.28125 L 31.28125 -96.421875 L 35.109375 -96.421875 L 35.109375 -76.453125 L 56.203125 -76.453125 L 56.203125 -59.890625 L 35.53125 -59.890625 L 35.53125 -30.015625 C 35.53125 -26.335938 36.546875 -23.484375 38.578125 -21.453125 C 40.609375 -19.421875 43.507812 -18.40625 47.28125 -18.40625 Z M 47.28125 -18.40625 "/></g></g></g><g fill="#190402" fill-opacity="1"><g transform="translate(290.917094, 106.43622)"><g><path d="M 72.34375 -76.59375 L 87.78125 -76.59375 L 87.78125 -0.140625 L 71.5 -0.140625 L 69.796875 -6.9375 C 66.492188 -4.101562 62.742188 -1.882812 58.546875 -0.28125 C 54.347656 1.320312 49.835938 2.125 45.015625 2.125 C 37.367188 2.125 30.523438 0.351562 24.484375 -3.1875 C 18.453125 -6.726562 13.6875 -11.539062 10.1875 -17.625 C 6.695312 -23.71875 4.953125 -30.632812 4.953125 -38.375 C 4.953125 -46.007812 6.695312 -52.867188 10.1875 -58.953125 C 13.6875 -65.046875 18.453125 -69.835938 24.484375 -73.328125 C 30.523438 -76.828125 37.367188 -78.578125 45.015625 -78.578125 C 49.929688 -78.578125 54.507812 -77.75 58.75 -76.09375 C 63 -74.445312 66.773438 -72.160156 70.078125 -69.234375 Z M 46.71875 -17.421875 C 50.6875 -17.421875 54.25 -18.316406 57.40625 -20.109375 C 60.570312 -21.898438 63.050781 -24.375 64.84375 -27.53125 C 66.632812 -30.695312 67.53125 -34.3125 67.53125 -38.375 C 67.53125 -42.332031 66.632812 -45.890625 64.84375 -49.046875 C 63.050781 -52.210938 60.570312 -54.71875 57.40625 -56.5625 C 54.25 -58.40625 50.6875 -59.328125 46.71875 -59.328125 C 42.664062 -59.328125 39.078125 -58.40625 35.953125 -56.5625 C 32.835938 -54.71875 30.382812 -52.210938 28.59375 -49.046875 C 26.800781 -45.890625 25.90625 -42.332031 25.90625 -38.375 C 25.90625 -34.3125 26.800781 -30.722656 28.59375 -27.609375 C 30.382812 -24.492188 32.835938 -22.015625 35.953125 -20.171875 C 39.078125 -18.335938 42.664062 -17.421875 46.71875 -17.421875 Z M 46.71875 -17.421875 "/></g></g></g><g fill="#190402" fill-opacity="1"><g transform="translate(382.946525, 106.43622)"><g><path d="M 47.28125 -18.40625 L 56.625 -18.40625 L 56.625 0 L 42.046875 0 C 33.648438 0 27.019531 -2.425781 22.15625 -7.28125 C 17.289062 -12.144531 14.859375 -18.828125 14.859375 -27.328125 L 14.859375 -59.890625 L 0.984375 -59.890625 L 0.984375 -64.28125 L 31.28125 -96.421875 L 35.109375 -96.421875 L 35.109375 -76.453125 L 56.203125 -76.453125 L 56.203125 -59.890625 L 35.53125 -59.890625 L 35.53125 -30.015625 C 35.53125 -26.335938 36.546875 -23.484375 38.578125 -21.453125 C 40.609375 -19.421875 43.507812 -18.40625 47.28125 -18.40625 Z M 47.28125 -18.40625 "/></g></g></g><g clip-path="url(#96d8996931)"><g fill="#190402" fill-opacity="1"><g transform="translate(438.164176, 106.43622)"><g><path d="M 9.90625 -86.640625 L 9.90625 -105.90625 L 30.578125 -105.90625 L 30.578125 -86.640625 Z M 9.90625 0 L 9.90625 -76.453125 L 30.578125 -76.453125 L 30.578125 0 Z M 9.90625 0 "/></g></g></g></g><g fill="#190402" fill-opacity="1"><g transform="translate(472.993791, 106.43622)"><g><path d="M 45.453125 2.125 C 37.804688 2.125 30.914062 0.332031 24.78125 -3.25 C 18.644531 -6.84375 13.804688 -11.707031 10.265625 -17.84375 C 6.722656 -23.976562 4.953125 -30.867188 4.953125 -38.515625 C 4.953125 -46.160156 6.722656 -53 10.265625 -59.03125 C 13.804688 -65.070312 18.644531 -69.835938 24.78125 -73.328125 C 30.914062 -76.828125 37.851562 -78.578125 45.59375 -78.578125 C 52.195312 -78.578125 58.210938 -77.28125 63.640625 -74.6875 C 69.066406 -72.09375 73.597656 -68.429688 77.234375 -63.703125 C 80.867188 -58.984375 83.296875 -53.507812 84.515625 -47.28125 L 64 -47.28125 C 62.289062 -51.0625 59.804688 -53.988281 56.546875 -56.0625 C 53.296875 -58.132812 49.597656 -59.171875 45.453125 -59.171875 C 41.765625 -59.171875 38.429688 -58.25 35.453125 -56.40625 C 32.484375 -54.570312 30.148438 -52.097656 28.453125 -48.984375 C 26.753906 -45.867188 25.90625 -42.332031 25.90625 -38.375 C 25.90625 -34.40625 26.753906 -30.835938 28.453125 -27.671875 C 30.148438 -24.515625 32.484375 -21.988281 35.453125 -20.09375 C 38.429688 -18.207031 41.765625 -17.265625 45.453125 -17.265625 C 49.691406 -17.265625 53.390625 -18.375 56.546875 -20.59375 C 59.710938 -22.8125 62.195312 -26 64 -30.15625 L 84.8125 -30.15625 C 83.582031 -23.738281 81.125 -18.097656 77.4375 -13.234375 C 73.757812 -8.378906 69.179688 -4.601562 63.703125 -1.90625 C 58.234375 0.78125 52.148438 2.125 45.453125 2.125 Z M 45.453125 2.125 "/></g></g></g></g></g></g></svg>